<svg width="100" height="100" viewBox="0 0 100 100" fill="none" xmlns="http://www.w3.org/2000/svg">
<g id="github">
<path id="bg" d="M84.375 0H15.625C6.99555 0 0 6.99555 0 15.625V84.375C0 93.0044 6.99555 100 15.625 100H84.375C93.0044 100 100 93.0044 100 84.375V15.625C100 6.99555 93.0044 0 84.375 0Z" fill="url(#paint0_linear)"/>
<path id="githab" fill-rule="evenodd" clip-rule="evenodd" d="M49.9235 26C36.1621 26 25 37.1621 25 50.9235C25 61.9327 32.1865 71.2599 41.9725 74.6239C43.1957 74.7768 43.6544 74.0122 43.6544 73.4006C43.6544 72.789 43.6544 71.2599 43.6544 69.1193C36.7737 70.6483 35.2446 65.7554 35.2446 65.7554C34.1743 62.8502 32.4924 62.0856 32.4924 62.0856C30.1988 60.5566 32.6453 60.5566 32.6453 60.5566C35.0917 60.7095 36.4679 63.156 36.4679 63.156C38.7615 66.9786 42.2783 65.9083 43.6544 65.2966C43.8073 63.6147 44.5719 62.5443 45.1835 61.9327C39.6789 61.3211 33.8685 59.1804 33.8685 49.5474C33.8685 46.7951 34.7859 44.6544 36.4679 42.8196C36.315 42.3609 35.3976 39.7615 36.7737 36.3976C36.7737 36.3976 38.9144 35.7859 43.6544 38.9969C45.6422 38.3853 47.7829 38.2324 49.9235 38.2324C52.0642 38.2324 54.2049 38.5382 56.1927 38.9969C60.9327 35.7859 63.0734 36.3976 63.0734 36.3976C64.4495 39.7615 63.5321 42.3609 63.3792 42.9725C64.9083 44.6544 65.9786 46.948 65.9786 49.7003C65.9786 59.3333 60.1682 61.3211 54.6636 61.9327C55.581 62.6973 56.3456 64.2263 56.3456 66.5199C56.3456 69.8838 56.3456 72.4832 56.3456 73.4006C56.3456 74.0122 56.8043 74.7768 58.0275 74.6239C67.9664 71.2599 75 61.9327 75 50.9235C74.8471 37.1621 63.685 26 49.9235 26Z" fill="white"/>
</g>
<defs>
<linearGradient id="paint0_linear" x1="5" y1="5" x2="94.5" y2="93.5" gradientUnits="userSpaceOnUse">
<stop stop-color="#574156" stop-opacity="0.92"/>
<stop offset="1" stop-color="#F48681"/>
</linearGradient>
</defs>
</svg>
