<svg width="100" height="100" viewBox="0 0 100 100" fill="none" xmlns="http://www.w3.org/2000/svg">
<g id="LinkedIn">
<path id="bg" d="M84.375 0H15.625C6.99555 0 0 6.99555 0 15.625V84.375C0 93.0044 6.99555 100 15.625 100H84.375C93.0044 100 100 93.0044 100 84.375V15.625C100 6.99555 93.0044 0 84.375 0Z" fill="url(#paint0_linear)"/>
<path id="linkedin" d="M36.25 75H25.625V41.5625H36.25V75ZM30.9375 36.875C27.5 36.875 25 34.375 25 30.9375C25 27.5 27.8125 25 30.9375 25C34.375 25 36.875 27.5 36.875 30.9375C36.875 34.375 34.375 36.875 30.9375 36.875ZM75 75H64.375V56.875C64.375 51.5625 62.1875 50 59.0625 50C55.9375 50 52.8125 52.5 52.8125 57.1875V75H42.1875V41.5625H52.1875V46.25C53.125 44.0625 56.875 40.625 62.1875 40.625C68.125 40.625 74.375 44.0625 74.375 54.375V75H75Z" fill="white"/>
</g>
<defs>
<linearGradient id="paint0_linear" x1="5" y1="5" x2="94.5" y2="93.5" gradientUnits="userSpaceOnUse">
<stop stop-color="#574156" stop-opacity="0.92"/>
<stop offset="1" stop-color="#F48681"/>
</linearGradient>
</defs>
</svg>
